HIERARCHY
ROOT Hips
{
    OFFSET 0.000000 0.000000 0.000000
    CHANNELS 6 Xposition Yposition Zposition Zrotation Xrotation Yrotation
    JOINT Spine
    {
        OFFSET -0.000000 8.339920 0.000000
        CHANNELS 3 Zrotation Xrotation Yrotation
        JOINT Spine1
        {
            OFFSET -0.000000 25.214485 0.000000
            CHANNELS 3 Zrotation Xrotation Yrotation
            JOINT Neck
            {
                OFFSET -0.000000 25.110935 2.282812
                CHANNELS 3 Zrotation Xrotation Yrotation
                JOINT Head
                {
                    OFFSET -0.000000 14.238888 -2.034127
                    CHANNELS 3 Zrotation Xrotation Yrotation
                    End Site
                    {
                        OFFSET -0.000000 25.426584 0.000000
                    }
                }
            }
            JOINT LeftShoulder
            {
                OFFSET 4.025024 23.158985 -0.185822
                CHANNELS 3 Zrotation Xrotation Yrotation
                JOINT LeftArm
                {
                    OFFSET 11.674057 0.000000 0.000000
                    CHANNELS 3 Zrotation Xrotation Yrotation
                    JOINT LeftForeArm
                    {
                        OFFSET 31.688633 0.000000 0.000000
                        CHANNELS 3 Zrotation Xrotation Yrotation
                        JOINT LeftHand
                        {
                            OFFSET 29.704493 0.000000 0.000000
                            CHANNELS 3 Zrotation Xrotation Yrotation
                            End Site
                            {
                                OFFSET 15.255952 0.000000 0.000000
                            }
                        }
                    }
                }
            }
            JOINT RightShoulder
            {
                OFFSET -4.099539 23.158985 -0.185822
                CHANNELS 3 Zrotation Xrotation Yrotation
                JOINT RightArm
                {
                    OFFSET -11.674057 0.000000 0.000000
                    CHANNELS 3 Zrotation Xrotation Yrotation
                    JOINT RightForeArm
                    {
                        OFFSET -31.688633 0.000000 0.000000
                        CHANNELS 3 Zrotation Xrotation Yrotation
                        JOINT RightHand
                        {
                            OFFSET -29.704493 0.000000 0.000000
                            CHANNELS 3 Zrotation Xrotation Yrotation
                            End Site
                            {
                                OFFSET -15.255952 0.000000 0.000000
                            }
                        }
                    }
                }
            }
        }
    }
    JOINT LeftUpLeg
    {
        OFFSET 10.170634 0.000000 0.000000
        CHANNELS 3 Zrotation Xrotation Yrotation
        JOINT LeftLeg
        {
            OFFSET -0.000000 -41.352962 0.000000
            CHANNELS 3 Zrotation Xrotation Yrotation
            JOINT LeftFoot
            {
                OFFSET -0.000000 -47.535004 0.000000
                CHANNELS 3 Zrotation Xrotation Yrotation
                JOINT LeftToeBase
                {
                    OFFSET -0.000000 -6.610912 15.255952
                    CHANNELS 3 Zrotation Xrotation Yrotation
                    End Site
                    {
                        OFFSET -0.000000 0.000000 4.068254
                    }
                }
            }
        }
    }
    JOINT RightUpLeg
    {
        OFFSET -10.170634 0.000000 0.000000
        CHANNELS 3 Zrotation Xrotation Yrotation
        JOINT RightLeg
        {
            OFFSET -0.000000 -41.352962 0.000000
            CHANNELS 3 Zrotation Xrotation Yrotation
            JOINT RightFoot
            {
                OFFSET -0.000000 -47.535004 0.000000
                CHANNELS 3 Zrotation Xrotation Yrotation
                JOINT RightToeBase
                {
                    OFFSET -0.000000 -6.610912 15.255952
                    CHANNELS 3 Zrotation Xrotation Yrotation
                    End Site
                    {
                        OFFSET -0.000000 0.000000 4.068254
                    }
                }
            }
        }
    }
}
MOTION
Frames:    10
Frame Time:    0.008333
36.143101    94.124054    50.343506    0.140471    -0.712170    85.329498    -0.723477    -7.800565    -4.110647    5.674153    4.690573    -4.293957    -9.411422    26.348234    -1.665297    5.132677    -1.463319    -1.862085    11.966402    0.808818    -5.588642    -0.835782    6.559021    -10.274061    40.227657    -5.489912    -42.533428    47.343983    6.324738    -10.479766    -13.611744    2.955011    -2.651125    69.529274    51.383045    8.225680    -2.817545    -8.395891    15.433539    -6.535948    -8.060356    0.747688    1.362400    7.402979    1.496886    -0.791029    -0.983898    6.388188    -0.008246    -6.847317    11.151896    0.000000    0.000000    0.000000    4.930897    5.337008    4.873207    -2.587406    0.054343    1.417926    -3.738281    -5.567528    -8.507536    0.000000    0.000000    0.000000    
36.146660    94.123566    50.350220    0.153472    -0.704667    85.329453    -0.677968    -7.755396    -4.147108    5.647735    4.652004    -4.330795    -9.553974    26.351627    -1.586286    5.052313    -1.448740    -1.807364    11.883437    0.924436    -5.559521    -0.770062    5.782690    -10.256553    39.210320    -6.369139    -41.455814    46.148914    5.381567    -8.824990    -13.605204    2.990823    -2.589055    69.593445    51.492500    8.292883    -2.890900    -8.358964    15.594525    -6.196066    -8.022140    1.025182    1.358702    7.394738    1.506981    -0.791680    -0.943944    6.394317    -0.000470    -6.851732    11.138327    0.000000    0.000000    0.000000    4.928789    5.334821    4.867064    -2.588776    0.088407    1.422989    -3.752701    -5.590459    -8.511566    0.000000    0.000000    0.000000    
36.149227    94.123741    50.357414    0.166957    -0.699242    85.327896    -0.622569    -7.700418    -4.175384    5.609468    4.584682    -4.358255    -9.667832    26.412611    -1.517424    4.957304    -1.474718    -1.766510    11.982455    0.790479    -5.564230    -1.104390    4.984226    -10.311440    38.269653    -7.373473    -40.173771    43.932987    3.906387    -8.201669    -13.560421    3.029148    -2.517347    69.654144    51.661572    8.317483    -2.965434    -8.422155    15.818380    -6.399234    -8.072308    1.044834    1.359155    7.392421    1.522403    -0.795498    -0.907093    6.307902    -0.007704    -6.858821    11.216129    0.000000    0.000000    0.000000    4.929001    5.337367    4.868618    -2.593004    0.113539    1.422361    -3.765403    -5.595968    -8.508646    0.000000    0.000000    0.000000    
36.155720    94.128906    50.360401    0.200478    -0.685384    85.319183    -0.577282    -7.629209    -4.202446    5.584738    4.517034    -4.384440    -9.788411    26.465284    -1.429467    4.866104    -1.469123    -1.706561    12.007327    0.669714    -5.572673    -1.413387    3.929185    -10.365382    37.211887    -8.201508    -39.245785    43.283752    3.183090    -6.058136    -13.544826    3.058008    -2.438322    69.740562    51.823185    8.343112    -3.082850    -8.443415    15.991035    -6.030426    -8.077361    1.197828    1.358728    7.392420    1.464344    -0.821920    -0.834841    6.360971    -0.010323    -6.873253    11.227725    0.000000    0.000000    0.000000    4.914917    5.359472    4.827094    -2.591178    0.133427    1.452044    -3.757631    -5.598927    -8.493529    0.000000    0.000000    0.000000    
36.153446    94.132339    50.365364    0.196483    -0.669245    85.303604    -0.533240    -7.602304    -4.222824    5.546409    4.465414    -4.403870    -9.837234    26.531382    -1.339384    4.726305    -1.492402    -1.645048    12.098690    0.474420    -5.605157    -1.916677    2.940778    -10.427225    36.119591    -9.282331    -37.884369    42.238930    1.483492    -5.356402    -13.488556    3.093790    -2.371035    69.750343    52.045605    8.417613    -3.124461    -8.487438    16.175213    -6.193150    -8.113084    1.213220    1.345013    7.381962    1.470540    -0.822534    -0.825141    6.369136    -0.026755    -6.848991    11.227859    0.000000    0.000000    0.000000    4.905751    5.333923    4.825017    -2.601030    0.172154    1.483080    -3.748457    -5.605504    -8.497300    0.000000    0.000000    0.000000    
36.153942    94.133591    50.370407    0.198274    -0.657261    85.290077    -0.608521    -7.656858    -4.169323    5.668458    4.586287    -4.355845    -9.673326    26.502569    -1.393842    4.469782    -1.457366    -1.723662    12.159998    0.267704    -5.797931    -2.412106    1.710539    -10.561052    35.327229    -10.248832    -37.102814    40.524364    1.495501    -1.336107    -13.476831    3.103824    -2.417844    69.753960    52.270943    8.420650    -3.208302    -8.564726    16.386990    -5.735086    -8.183282    1.524428    1.339473    7.391533    1.470402    -0.828907    -0.838175    6.407271    -0.049674    -6.834623    11.198021    0.000000    0.000000    0.000000    4.898908    5.329722    4.818948    -2.606028    0.179868    1.494624    -3.747070    -5.611674    -8.485779    0.000000    0.000000    0.000000    
36.147964    94.136574    50.375004    0.186462    -0.641788    85.267471    -0.604425    -7.629707    -4.182533    5.687411    4.519173    -4.366873    -9.641007    26.532484    -1.321458    4.271963    -1.386215    -1.681278    12.177747    0.111617    -5.855169    -2.870346    0.409323    -10.693669    34.058952    -11.638562    -36.099308    39.809177    -0.020570    0.615515    -13.444122    3.126110    -2.336514    69.778404    52.490765    8.439218    -3.146736    -8.690928    16.633593    -6.150224    -8.312400    1.437550    1.326234    7.381679    1.491010    -0.828197    -0.844726    6.394445    -0.055510    -6.813642    11.206794    0.000000    0.000000    0.000000    4.885682    5.302464    4.818864    -2.607191    0.195532    1.498500    -3.736164    -5.614186    -8.467731    0.000000    0.000000    0.000000    
36.147934    94.139091    50.380421    0.181483    -0.636187    85.246292    -0.482111    -7.563018    -4.246538    5.574447    4.362214    -4.427209    -9.806343    26.621227    -1.154259    4.244441    -1.318815    -1.539388    12.127981    -0.001028    -5.864354    -3.371784    -1.177932    -10.721524    32.750179    -12.942774    -35.239407    38.188847    -1.457726    2.516171    -13.375468    3.157920    -2.199900    69.769684    52.677319    8.563442    -3.255771    -8.574319    16.669830    -5.507833    -8.184754    1.729300    1.323168    7.394545    1.511325    -0.826987    -0.874238    6.416947    -0.079183    -6.784464    11.170203    0.000000    0.000000    0.000000    4.883411    5.301482    4.826964    -2.610233    0.186387    1.492466    -3.750874    -5.604718    -8.443851    0.000000    0.000000    0.000000    
36.145329    94.141014    50.383110    0.166722    -0.624334    85.225479    -0.508002    -7.590248    -4.220412    5.647895    4.395856    -4.403717    -9.729775    26.613291    -1.152384    4.085525    -1.246931    -1.555890    12.113325    -0.277342    -5.994617    -3.935555    -2.775424    -10.899353    31.480097    -14.680741    -34.641727    36.752167    -2.940629    5.426142    -13.352801    3.128666    -2.221577    69.815681    52.894711    8.538626    -3.222970    -8.605185    16.903143    -6.070404    -8.223644    1.757006    1.293794    7.426423    1.588216    -0.794800    -0.972036    6.471159    -0.122949    -6.728854    11.056509    0.000000    0.000000    0.000000    4.872303    5.287987    4.830131    -2.610345    0.172561    1.475521    -3.738365    -5.599627    -8.407660    0.000000    0.000000    0.000000    
36.143993    94.142380    50.386284    0.160132    -0.622483    85.216843    -0.371875    -7.475399    -4.304596    5.507336    4.133230    -4.479240    -9.772448    26.785460    -0.983067    3.920355    -1.230883    -1.426836    12.069682    -0.355305    -5.960271    -4.519643    -4.331677    -10.990605    30.220575    -16.422693    -34.118759    35.917274    -4.583568    7.845790    -13.256286    3.175052    -2.012799    69.758110    53.369354    8.625696    -3.289869    -8.752026    16.978645    -5.772721    -8.360067    1.877113    1.286249    7.430155    1.581864    -0.783335    -0.990775    6.490075    -0.128475    -6.709878    11.052327    0.000000    0.000000    0.000000    4.871290    5.287374    4.836022    -2.610779    0.160989    1.474299    -3.727811    -5.595404    -8.401581    0.000000    0.000000    0.000000    
